<svg width="433" height="433" viewBox="0 0 433 433" fill="none" xmlns="http://www.w3.org/2000/svg">
<path fill-rule="evenodd" clip-rule="evenodd" d="M216.257 0.527832C97.0569 0.527832 0.419965 97.1606 0.419965 216.365C0.397749 251.332 8.88157 285.78 25.1398 316.738C41.3979 347.696 64.9425 374.234 93.743 394.065C109.279 392.23 129.926 393.958 151.583 396.365C157.322 397.004 162.762 397.628 167.961 398.226L167.972 398.227C223.866 404.647 252.085 407.888 327.983 391.649C328.222 391.596 328.473 391.638 328.683 391.765C328.892 391.892 329.045 392.095 329.109 392.331C329.174 392.568 329.144 392.82 329.028 393.036C328.911 393.251 328.716 393.414 328.483 393.49C282.214 408.471 244.998 411.99 213.195 410.837C212.989 410.83 212.787 410.89 212.617 411.007C212.448 411.125 212.322 411.294 212.256 411.489C212.191 411.685 212.191 411.896 212.255 412.091C212.32 412.287 212.445 412.457 212.614 412.575C230.303 424.957 270.451 420.564 305.706 412.842C343.404 395.671 375.365 368.017 397.775 333.178C420.186 298.339 432.099 257.789 432.094 216.365C432.094 97.1606 335.46 0.527832 216.257 0.527832ZM99.1639 397.7C132.013 398.606 184.196 405.476 202.864 415.206C203.059 415.31 203.214 415.48 203.299 415.687C203.384 415.893 203.394 416.123 203.328 416.336C203.261 416.549 203.122 416.732 202.934 416.854C202.746 416.975 202.522 417.026 202.3 416.999C191.543 415.639 180.882 413.846 170.224 412.039C160.164 410.33 140.098 407.461 120.164 409.667C112.945 406.074 105.934 402.079 99.1639 397.7ZM196.056 423.755C214.775 425.998 233.631 426.903 252.479 426.463C252.708 426.456 252.932 426.533 253.11 426.678C253.287 426.824 253.406 427.028 253.445 427.255C253.484 427.481 253.44 427.714 253.322 427.91C253.203 428.107 253.017 428.254 252.799 428.325C250.821 428.966 248.798 429.534 246.743 430.047C236.644 431.478 226.457 432.197 216.257 432.2C186.734 432.235 157.52 426.192 130.434 414.448C142.645 415.476 155.112 417.585 168.312 419.826C177.216 421.338 186.514 422.677 196.056 423.755ZM106.445 264.674C106.446 269.005 104.526 273.778 100.687 278.993L61.422 331.543V337.3H134.639V313.829H104.23L122.682 288.586C125.831 284.433 128.436 279.894 130.432 275.079C131.947 271.146 132.723 266.967 132.72 262.753C132.721 253.503 129.671 246.123 123.568 240.612C117.465 235.101 109.15 232.345 98.621 232.345C87.0096 232.343 78.0793 235.493 71.83 241.793C65.5807 248.093 62.456 257.393 62.456 269.693H86.665C86.665 264.772 87.5503 261.132 89.321 258.77C90.1896 257.608 91.3304 256.677 92.643 256.059C93.9557 255.441 95.4 255.156 96.849 255.227C98.1384 255.146 99.4308 255.327 100.649 255.758C101.866 256.189 102.985 256.863 103.936 257.737C104.801 258.664 105.47 259.756 105.901 260.948C106.332 262.141 106.517 263.408 106.445 264.674ZM82.239 324.9H122.239L122.237 326.376H79.282L107.919 287.85C111.203 283.672 114.094 279.2 116.555 274.491C118.239 270.812 119.071 266.8 118.99 262.755C118.992 257.048 117.122 252.571 113.381 249.323C109.64 246.075 104.473 244.451 97.881 244.451C91.8777 244.451 86.9573 245.706 83.12 248.215C81.2947 249.346 79.7403 250.864 78.5668 252.663C77.3933 254.461 76.6293 256.496 76.329 258.622H74.8529C75.1528 256.303 75.9556 254.078 77.2051 252.102C78.4547 250.126 80.1208 248.447 82.087 247.182C86.2163 244.377 91.481 242.975 97.881 242.975C104.868 242.974 110.379 244.745 114.414 248.289C118.449 251.833 120.466 256.655 120.466 262.755C120.53 266.973 119.673 271.154 117.956 275.007C115.498 279.883 112.529 284.485 109.1 288.735L82.239 324.9ZM179.505 278.993C183.343 273.778 185.262 269.005 185.262 264.674C185.334 263.408 185.149 262.141 184.718 260.948C184.287 259.756 183.618 258.664 182.753 257.737C181.802 256.863 180.684 256.19 179.466 255.758C178.249 255.327 176.956 255.146 175.667 255.227C174.218 255.155 172.774 255.441 171.461 256.059C170.148 256.677 169.008 257.608 168.139 258.77C166.368 261.132 165.483 264.772 165.483 269.693H141.274C141.274 257.393 144.398 248.093 150.647 241.793C156.896 235.493 165.826 232.343 177.439 232.345C187.968 232.345 196.283 235.101 202.386 240.612C208.489 246.123 211.539 253.503 211.538 262.753C211.541 266.967 210.765 271.146 209.249 275.079C207.253 279.894 204.649 284.433 201.499 288.586L183.048 313.827H213.457V337.3H140.24V331.543L179.505 278.993ZM201.057 324.9H161.057L187.924 288.734C191.353 284.484 194.322 279.882 196.78 275.006C198.497 271.153 199.354 266.972 199.29 262.754C199.29 256.654 197.272 251.832 193.237 248.288C189.202 244.744 183.689 242.973 176.7 242.975C170.3 242.975 165.035 244.377 160.905 247.182C158.939 248.447 157.273 250.126 156.023 252.102C154.774 254.078 153.971 256.303 153.671 258.622H155.148C155.448 256.496 156.212 254.461 157.386 252.663C158.559 250.864 160.114 249.346 161.939 248.215C165.776 245.706 170.697 244.451 176.7 244.451C183.292 244.451 188.459 246.075 192.2 249.323C195.941 252.571 197.811 257.048 197.809 262.755C197.89 266.8 197.058 270.812 195.373 274.491C192.912 279.2 190.021 283.672 186.738 287.85L158.1 326.376H201.055L201.057 324.9ZM264.08 264.674C264.08 269.005 262.161 273.778 258.323 278.993L219.057 331.543V337.3H292.274V313.827H261.865L280.317 288.586C283.466 284.433 286.071 279.894 288.067 275.079C289.583 271.146 290.358 266.967 290.355 262.753C290.356 253.503 287.306 246.123 281.204 240.612C275.102 235.101 266.786 232.345 256.256 232.345C244.645 232.343 235.714 235.493 229.465 241.793C223.216 248.093 220.091 257.393 220.091 269.693H244.3C244.301 264.772 245.186 261.132 246.956 258.77C247.825 257.608 248.965 256.677 250.278 256.059C251.591 255.441 253.035 255.156 254.484 255.227C255.773 255.146 257.066 255.327 258.284 255.758C259.502 256.189 260.62 256.862 261.571 257.737C262.436 258.664 263.105 259.756 263.536 260.948C263.967 262.141 264.152 263.408 264.08 264.674ZM239.874 324.9H279.874L279.877 326.375H236.922L265.559 287.849C268.843 283.671 271.734 279.199 274.195 274.49C275.879 270.811 276.711 266.799 276.63 262.754C276.632 257.047 274.762 252.57 271.021 249.322C267.28 246.074 262.113 244.45 255.521 244.45C249.518 244.45 244.598 245.705 240.76 248.214C238.935 249.345 237.38 250.863 236.207 252.662C235.033 254.46 234.269 256.495 233.969 258.621H232.493C232.793 256.302 233.596 254.077 234.846 252.101C236.095 250.125 237.761 248.446 239.727 247.181C243.856 244.376 249.121 242.974 255.521 242.974C262.508 242.972 268.019 244.744 272.054 248.288C276.089 251.832 278.107 256.654 278.107 262.754C278.171 266.972 277.314 271.153 275.596 275.006C273.138 279.882 270.169 284.484 266.74 288.734L239.874 324.9ZM337.14 278.993C340.978 273.778 342.897 269.005 342.898 264.674C342.97 263.408 342.785 262.141 342.354 260.948C341.922 259.756 341.254 258.664 340.389 257.737C339.438 256.863 338.319 256.19 337.102 255.758C335.884 255.327 334.591 255.146 333.302 255.227C331.853 255.156 330.409 255.441 329.096 256.059C327.783 256.677 326.643 257.608 325.774 258.77C324.003 261.132 323.118 264.772 323.118 269.693H298.909C298.909 257.393 302.033 248.093 308.282 241.793C314.531 235.493 323.461 232.343 335.074 232.345C345.603 232.345 353.918 235.101 360.021 240.612C366.124 246.123 369.174 253.503 369.173 262.753C369.176 266.967 368.4 271.146 366.885 275.079C364.889 279.894 362.284 284.433 359.135 288.586L340.683 313.827H371.092V337.3H297.875V331.543L337.14 278.993ZM358.692 324.9H318.692L345.558 288.734C348.987 284.484 351.956 279.882 354.414 275.006C356.131 271.153 356.988 266.972 356.924 262.754C356.924 256.654 354.906 251.832 350.871 248.288C346.836 244.744 341.325 242.972 334.339 242.974C327.939 242.974 322.672 244.376 318.539 247.181C316.573 248.446 314.907 250.125 313.658 252.101C312.409 254.077 311.606 256.302 311.306 258.621H312.782C313.082 256.495 313.846 254.46 315.02 252.662C316.193 250.863 317.748 249.345 319.573 248.214C323.41 245.705 328.33 244.45 334.334 244.45C340.926 244.45 346.093 246.074 349.834 249.322C353.575 252.57 355.445 257.047 355.443 262.754C355.524 266.799 354.692 270.811 353.007 274.49C350.546 279.199 347.655 283.671 344.372 287.849L315.735 326.375H358.69L358.692 324.9ZM101.861 367.816H90.8353V348.521H92.9026V365.914H101.861V367.816ZM105.819 367.816H103.696L111.056 348.411H113.095L120.455 367.816H118.25L116.376 362.744H107.693L105.819 367.816ZM112.048 351.084L108.382 360.87H115.686L112.048 351.084ZM130.346 367.816H123.675V348.521H130.208C132.248 348.521 133.901 349.1 134.976 350.175C135.776 350.974 136.244 352.049 136.244 353.345V353.4C136.244 355.963 134.673 357.259 133.075 357.893C135.335 358.554 137.071 359.905 137.071 362.523V362.606C137.071 365.886 134.398 367.816 130.346 367.816ZM129.905 357.176C132.468 357.176 134.15 355.908 134.15 353.676V353.621C134.15 351.636 132.661 350.396 130.098 350.396H125.743V357.176H129.905ZM134.976 362.468V362.414C134.976 360.263 133.295 358.996 130.18 358.996H125.743V365.941H130.428C133.212 365.941 134.976 364.674 134.976 362.468ZM149.86 367.816H147.848V348.521H149.998L155.869 358.857L161.767 348.521H163.917V367.816H161.85V352.27L155.896 362.579H155.814L149.86 352.27V367.816ZM176.844 346.812H175.246L177.726 343.422L179.766 344.359L176.844 346.812ZM184.397 358.251C184.397 363.929 181.006 368.119 176.1 368.119C171.166 368.119 167.803 363.957 167.803 358.306V358.086C167.803 352.408 171.221 348.218 176.128 348.218C181.034 348.218 184.397 352.38 184.397 358.031V358.251ZM169.953 358.251C169.953 362.91 172.572 366.217 176.128 366.217C179.683 366.217 182.274 362.937 182.274 358.279V358.086C182.274 353.428 179.656 350.12 176.1 350.12C172.544 350.12 169.953 353.4 169.953 358.058V358.251ZM194.752 367.954H192.85L185.877 348.521H188.137L193.815 364.949L199.521 348.521H201.698L194.752 367.954ZM207.174 367.816H205.107V348.521H207.174V367.816ZM222.992 367.816H211.966V348.521H214.033V365.914H222.992V367.816ZM238.851 367.816H233.393V348.521H238.851C244.226 348.521 247.919 352.38 247.919 358.058V358.251C247.919 363.902 244.226 367.816 238.851 367.816ZM245.769 358.086C245.769 353.51 243.013 350.423 238.795 350.423H235.46V365.914H238.795C243.013 365.914 245.769 362.854 245.769 358.279V358.086ZM267.654 358.251C267.654 363.929 264.264 368.119 259.357 368.119C254.423 368.119 251.061 363.957 251.061 358.306V358.086C251.061 352.408 254.478 348.218 259.385 348.218C264.291 348.218 267.654 352.38 267.654 358.031V358.251ZM253.211 358.251C253.211 362.91 255.829 366.217 259.385 366.217C262.941 366.217 265.532 362.937 265.532 358.279V358.086C265.532 353.428 262.913 350.12 259.357 350.12C255.802 350.12 253.211 353.4 253.211 358.058V358.251ZM285.235 365.445C283.609 367.044 281.762 368.092 279.116 368.092C274.347 368.092 270.791 364.15 270.791 358.279V358.113C270.791 352.27 274.43 348.246 279.254 348.246C281.9 348.246 283.609 349.21 285.125 350.616L283.857 352.187C282.644 351.029 281.183 350.175 279.226 350.175C275.67 350.175 272.941 353.428 272.941 358.086V358.196C272.941 362.937 275.67 366.162 279.226 366.162C281.211 366.162 282.616 365.335 283.995 364.012L285.235 365.445ZM300.402 367.816H288.494V348.521H300.264V350.423H290.561V357.148H299.271V359.023H290.561V365.914H300.402V367.816ZM306.119 367.816H304.106V348.521H306.063L316.152 363.709V348.521H318.192V367.816H316.455L306.119 352.27V367.816ZM329.016 367.816H326.949V350.451H321.546V348.521H334.446V350.451H329.016V367.816ZM349.715 367.816H337.808V348.521H349.577V350.423H339.875V357.148H348.585V359.023H339.875V365.914H349.715V367.816Z" fill="white"/>
<path d="M52.46 151.33C52.46 151.33 97.0849 35.73 222.96 35.73C348.835 35.73 389.552 153.36 389.552 153.36" stroke="#EFEFEF" stroke-width="2.355" stroke-miterlimit="10" stroke-dasharray="2.36 4.71"/>
<path d="M396.008 193.551C398.608 189.18 406.37 175.688 406.37 170.542C406.37 169.071 406.08 167.615 405.517 166.256C404.955 164.897 404.13 163.662 403.09 162.622C402.05 161.582 400.815 160.757 399.456 160.194C398.097 159.631 396.641 159.342 395.17 159.342C393.699 159.342 392.243 159.631 390.884 160.194C389.525 160.757 388.29 161.582 387.25 162.622C386.21 163.662 385.385 164.897 384.823 166.256C384.26 167.615 383.97 169.071 383.97 170.542C383.97 175.693 391.731 189.18 394.331 193.551C394.416 193.698 394.539 193.819 394.686 193.904C394.833 193.989 395 194.033 395.169 194.033C395.339 194.033 395.506 193.989 395.653 193.904C395.8 193.819 395.923 193.698 396.008 193.551ZM389.557 170.542C389.557 169.431 389.886 168.345 390.504 167.421C391.121 166.497 391.998 165.777 393.024 165.352C394.051 164.927 395.18 164.816 396.27 165.033C397.359 165.249 398.36 165.784 399.146 166.57C399.931 167.356 400.466 168.356 400.683 169.446C400.9 170.536 400.789 171.665 400.363 172.691C399.938 173.718 399.218 174.595 398.295 175.212C397.371 175.829 396.285 176.159 395.174 176.159C393.684 176.158 392.256 175.566 391.203 174.513C390.149 173.46 389.558 172.031 389.557 170.542Z" fill="#212120"/>
<path d="M47.642 179.528C45.577 179.528 43.5583 178.916 41.8413 177.768C40.1243 176.621 38.786 174.99 37.9958 173.083C37.2055 171.175 36.9987 169.075 37.4016 167.05C37.8045 165.025 38.7989 163.164 40.2591 161.704C41.7193 160.244 43.5797 159.249 45.605 158.847C47.6304 158.444 49.7297 158.651 51.6376 159.441C53.5454 160.231 55.1761 161.569 56.3234 163.286C57.4706 165.003 58.083 167.022 58.083 169.087C58.0801 171.855 56.9791 174.509 55.0217 176.467C53.0642 178.424 50.4102 179.525 47.642 179.528ZM47.642 161.868C46.2142 161.868 44.8186 162.292 43.6316 163.085C42.4446 163.878 41.5194 165.006 40.9732 166.325C40.427 167.644 40.2842 169.096 40.5628 170.496C40.8415 171.896 41.5291 173.182 42.5387 174.192C43.5484 175.201 44.8347 175.889 46.235 176.167C47.6353 176.446 49.0868 176.303 50.4058 175.756C51.7249 175.21 52.8522 174.285 53.6454 173.098C54.4386 171.91 54.862 170.515 54.862 169.087C54.8599 167.173 54.0985 165.338 52.7449 163.984C51.3913 162.631 49.5561 161.87 47.642 161.868Z" fill="#212120"/>
<path d="M47.642 173.231C49.9307 173.231 51.786 171.376 51.786 169.087C51.786 166.798 49.9307 164.943 47.642 164.943C45.3533 164.943 43.498 166.798 43.498 169.087C43.498 171.376 45.3533 173.231 47.642 173.231Z" fill="#212120"/>
<path d="M382.515 250.765L306.151 199.685C322.226 188.342 332.879 175.873 334.793 163.995C338.573 140.52 330.118 181.377 207.293 182.595L207.093 155.713C212.418 156.113 217.938 156.328 223.593 156.328C252.193 156.328 277.316 150.921 291.693 142.761C293.513 138.931 295.24 135.04 296.839 131.079C271.205 135.779 258.196 132.452 258.196 132.452C271.724 133.54 285.305 131.716 297.843 128.532C299.073 125.347 300.206 122.114 301.243 118.832C274.713 124.96 261.143 121.932 261.143 121.932C275.187 122.583 289.22 120.044 302.06 116.141C303.454 111.371 304.585 106.527 305.447 101.633C276.154 111.004 260.929 108.397 260.929 108.397C276.593 108.287 292.129 104.122 305.942 98.5968C306.496 94.9228 306.889 91.2228 307.12 87.4968C276.7 99.2588 260.164 97.3858 260.164 97.3858C276.959 96.4018 293.212 90.9728 307.273 84.3168C307.41 80.3071 307.347 76.293 307.082 72.2898C276.039 86.9628 258.708 85.9948 258.708 85.9948C276.136 83.9468 292.746 77.0048 306.824 69.0258C306.818 68.9598 306.814 68.8928 306.807 68.8258C306.346 63.9938 305.628 59.2388 304.745 54.5338C274.02 72.6968 256.263 73.0598 256.263 73.0598C273.926 69.5188 290.417 60.7518 304.102 51.2208C302.902 45.3668 301.462 39.5848 299.931 33.8328C288.112 44.6328 261.647 57.7168 223.601 57.7168C217.237 57.7168 211.533 57.6168 206.37 57.4078L206.185 32.7628C206.177 31.7867 205.784 30.8533 205.091 30.1658C204.398 29.4784 203.461 29.0927 202.485 29.0928H202.458C201.477 29.1002 200.539 29.4967 199.851 30.1952C199.162 30.8937 198.779 31.837 198.786 32.8178L198.967 56.9908C176.222 55.3458 165 50.6998 151.483 40.7998C158.813 76.1998 157.7 97.7458 148.903 127.443C148.292 130.195 147.383 132.871 146.191 135.426C153.955 144.764 174.114 152.137 199.691 155.016L199.897 182.616C77.057 182.27 68.983 146.074 68.554 176.63C90.82 184.091 151.685 202.086 205.669 196.282C205.669 196.282 163.161 206.614 68.627 184.008C68.7732 186.765 69.1137 189.508 69.646 192.218C93.204 199.018 153.385 213.908 206.07 206.181C206.07 206.181 164.892 217.881 71.7209 199.797C72.5744 202.118 73.6152 204.367 74.8329 206.52C101.401 213.092 157.328 224.165 206.256 215.744C206.256 215.744 167.816 227.709 80.136 214.05C94.75 230.909 123.877 240.42 171.527 240.42C196.727 240.42 223.153 235.62 247.243 227.878L289.272 254.8C289.686 255.092 290.181 255.25 290.689 255.25C292.198 255.25 293.663 253.87 293.077 251.45L253.054 225.941C255.172 225.207 257.269 224.451 259.344 223.673L307.353 254.8C307.767 255.093 308.262 255.25 308.77 255.25C310.279 255.25 311.744 253.87 311.157 251.45L264.867 221.531C266.887 220.721 268.88 219.893 270.846 219.045L325.434 254.8C325.848 255.093 326.343 255.25 326.851 255.249C328.351 255.249 329.818 253.886 329.242 251.449L276.1 216.708C278.022 215.824 279.913 214.924 281.772 214.008L343.52 254.808C343.934 255.101 344.429 255.258 344.936 255.258C346.445 255.258 347.91 253.878 347.324 251.458L286.741 211.482C288.565 210.522 290.351 209.547 292.098 208.557L361.6 254.8C361.865 254.989 362.164 255.125 362.481 255.198C362.798 255.271 363.127 255.281 363.447 255.227C363.768 255.172 364.075 255.055 364.351 254.881C364.626 254.708 364.864 254.481 365.051 254.215C365.239 253.949 365.371 253.648 365.442 253.331C365.513 253.013 365.52 252.685 365.463 252.364C365.406 252.044 365.286 251.738 365.11 251.464C364.934 251.19 364.706 250.954 364.438 250.769L296.769 205.81C298.488 204.77 300.162 203.717 301.791 202.651L379.674 254.8C380.209 255.176 380.872 255.325 381.517 255.213C382.162 255.101 382.736 254.737 383.113 254.202C383.49 253.666 383.638 253.003 383.526 252.358C383.414 251.713 383.05 251.14 382.515 250.763V250.765Z" fill="#212120"/>
</svg>
